<?xml version="1.0" encoding="utf-8"?>
<!-- Generator: Adobe Illustrator 16.0.0, SVG Export Plug-In . SVG Version: 6.00 Build 0)  -->
<!DOCTYPE svg PUBLIC "-//W3C//DTD SVG 1.1//EN" "http://www.w3.org/Graphics/SVG/1.1/DTD/svg11.dtd">
<svg version="1.1" id="Layer_1" xmlns="http://www.w3.org/2000/svg" xmlns:xlink="http://www.w3.org/1999/xlink" x="0px" y="0px"
	 width="20px" height="20px" viewBox="0 0 20 20" enable-background="new 0 0 20 20" xml:space="preserve">
<g>
	<path fill="#333333" d="M12,3c0,0.55-0.45,1-1,1H2C1.45,4,1,3.55,1,3l0,0c0-0.55,0.45-1,1-1h9C11.55,2,12,2.45,12,3L12,3z"/>
</g>
<g>
	<path fill="#333333" d="M16,6c0,0.55-0.45,1-1,1H2C1.45,7,1,6.55,1,6l0,0c0-0.55,0.45-1,1-1h13C15.55,5,16,5.45,16,6L16,6z"/>
</g>
<g>
	<path fill="#333333" d="M13,9c0,0.55-0.45,1-1,1H2c-0.55,0-1-0.45-1-1l0,0c0-0.55,0.45-1,1-1h10C12.55,8,13,8.45,13,9L13,9z"/>
</g>
<g>
	<path fill="#333333" d="M15,12c0,0.55-0.45,1-1,1H2c-0.55,0-1-0.45-1-1l0,0c0-0.55,0.45-1,1-1h12C14.55,11,15,11.45,15,12L15,12z"
		/>
</g>
<g>
	<path fill="#333333" d="M17,15c0,0.55-0.45,1-1,1H2c-0.55,0-1-0.45-1-1l0,0c0-0.55,0.45-1,1-1h14C16.55,14,17,14.45,17,15L17,15z"
		/>
</g>
<g>
	<path fill="#333333" d="M15,18c0,0.55-0.45,1-1,1H2c-0.55,0-1-0.45-1-1l0,0c0-0.55,0.45-1,1-1h12C14.55,17,15,17.45,15,18L15,18z"
		/>
</g>
</svg>
