<?xml version="1.0" encoding="utf-8"?>
<!-- Generator: Adobe Illustrator 16.0.0, SVG Export Plug-In . SVG Version: 6.00 Build 0)  -->
<!DOCTYPE svg PUBLIC "-//W3C//DTD SVG 1.1//EN" "http://www.w3.org/Graphics/SVG/1.1/DTD/svg11.dtd">
<svg version="1.1" id="Layer_1" xmlns="http://www.w3.org/2000/svg" xmlns:xlink="http://www.w3.org/1999/xlink" x="0px" y="0px"
	 width="20px" height="20px" viewBox="0 0 20 20" enable-background="new 0 0 20 20" xml:space="preserve">
<g>
	<path fill="#333333" d="M18.5,3c0,0.55-0.45,1-1,1h-9c-0.55,0-1-0.45-1-1l0,0c0-0.55,0.45-1,1-1h9C18.05,2,18.5,2.45,18.5,3L18.5,3
		z"/>
</g>
<g>
	<path fill="#333333" d="M18.5,6c0,0.55-0.45,1-1,1h-13c-0.55,0-1-0.45-1-1l0,0c0-0.55,0.45-1,1-1h13C18.05,5,18.5,5.45,18.5,6
		L18.5,6z"/>
</g>
<g>
	<path fill="#333333" d="M18.5,9c0,0.55-0.451,1-1,1h-10c-0.55,0-1-0.45-1-1l0,0c0-0.55,0.45-1,1-1h10C18.049,8,18.5,8.45,18.5,9
		L18.5,9z"/>
</g>
<g>
	<path fill="#333333" d="M18.5,12c0,0.55-0.45,1-1,1h-12c-0.55,0-1-0.45-1-1l0,0c0-0.55,0.45-1,1-1h12C18.05,11,18.5,11.45,18.5,12
		L18.5,12z"/>
</g>
<g>
	<path fill="#333333" d="M18.292,15c0,0.55-0.45,1-1,1h-14c-0.55,0-1-0.45-1-1l0,0c0-0.55,0.45-1,1-1h14
		C17.842,14,18.292,14.45,18.292,15L18.292,15z"/>
</g>
<g>
	<path fill="#333333" d="M18.292,17.75c0,0.55-0.45,1-1,1h-12c-0.55,0-1-0.45-1-1l0,0c0-0.55,0.45-1,1-1h12
		C17.842,16.75,18.292,17.2,18.292,17.75L18.292,17.75z"/>
</g>
</svg>
