<?xml version="1.0" encoding="utf-8"?>
<!-- Generator: Adobe Illustrator 16.0.0, SVG Export Plug-In . SVG Version: 6.00 Build 0)  -->
<!DOCTYPE svg PUBLIC "-//W3C//DTD SVG 1.1//EN" "http://www.w3.org/Graphics/SVG/1.1/DTD/svg11.dtd">
<svg version="1.1" xmlns="http://www.w3.org/2000/svg" xmlns:xlink="http://www.w3.org/1999/xlink" x="0px" y="0px" width="700px"
	 height="700px" viewBox="0 0 700 700" enable-background="new 0 0 700 700" xml:space="preserve">
<g id="Layer_1">
	<g>
		<path fill="#2B2B2B" d="M576,446c0,5.5-4.5,10-10,10H134c-5.5,0-10-4.5-10-10V201c0-5.5,4.5-10,10-10h432c5.5,0,10,4.5,10,10V446z
			"/>
	</g>
	<rect x="140" y="204" fill="#E0E0E0" width="421" height="240"/>
	<rect x="140" y="204" fill="#2ECC71" width="116" height="240"/>
	<rect x="310" y="234" fill="#3498DB" width="204" height="29"/>
	<rect x="310" y="263" fill="#FFFFFF" width="204" height="150"/>
	<polygon fill="#212121" points="450,538 250,538 256,507 441.667,507 	"/>
	<rect x="320" y="453" fill="#2B2B2B" width="61" height="65"/>
	<g>
		<path fill="#2ECC71" d="M112.07,610l13.195-34.359h4.898L144.227,610h-5.18l-4.008-10.406h-14.367L116.898,610H112.07z
			 M121.984,595.891h11.648l-3.586-9.516c-1.094-2.891-1.906-5.266-2.438-7.125c-0.438,2.203-1.055,4.391-1.852,6.563
			L121.984,595.891z"/>
		<path fill="#333333" d="M147.859,610v-34.359h11.836c2.672,0,4.711,0.164,6.117,0.492c1.969,0.453,3.648,1.273,5.039,2.461
			c1.813,1.531,3.168,3.488,4.066,5.871s1.348,5.105,1.348,8.168c0,2.609-0.305,4.922-0.914,6.938s-1.391,3.684-2.344,5.004
			s-1.996,2.359-3.129,3.117s-2.5,1.332-4.102,1.723s-3.441,0.586-5.52,0.586H147.859z M152.406,605.945h7.336
			c2.266,0,4.043-0.211,5.332-0.633s2.316-1.016,3.082-1.781c1.078-1.078,1.918-2.527,2.52-4.348s0.902-4.027,0.902-6.621
			c0-3.594-0.59-6.355-1.77-8.285s-2.613-3.223-4.301-3.879c-1.219-0.469-3.18-0.703-5.883-0.703h-7.219V605.945z"/>
		<path fill="#333333" d="M199.023,601.984l4.359,0.539c-0.688,2.547-1.961,4.523-3.82,5.93s-4.234,2.109-7.125,2.109
			c-3.641,0-6.527-1.121-8.66-3.363s-3.199-5.387-3.199-9.434c0-4.188,1.078-7.438,3.234-9.75s4.953-3.469,8.391-3.469
			c3.328,0,6.047,1.133,8.156,3.398s3.164,5.453,3.164,9.563c0,0.25-0.008,0.625-0.023,1.125h-18.563
			c0.156,2.734,0.93,4.828,2.32,6.281s3.125,2.18,5.203,2.18c1.547,0,2.867-0.406,3.961-1.219S198.383,603.766,199.023,601.984z
			 M185.172,595.164h13.898c-0.188-2.094-0.719-3.664-1.594-4.711c-1.344-1.625-3.086-2.438-5.227-2.438
			c-1.938,0-3.566,0.648-4.887,1.945S185.313,592.992,185.172,595.164z"/>
		<path fill="#333333" d="M206.992,602.57l4.172-0.656c0.234,1.672,0.887,2.953,1.957,3.844s2.566,1.336,4.488,1.336
			c1.938,0,3.375-0.395,4.313-1.184s1.406-1.715,1.406-2.777c0-0.953-0.414-1.703-1.242-2.25c-0.578-0.375-2.016-0.852-4.313-1.43
			c-3.094-0.781-5.238-1.457-6.434-2.027s-2.102-1.359-2.719-2.367s-0.926-2.121-0.926-3.34c0-1.109,0.254-2.137,0.762-3.082
			s1.199-1.73,2.074-2.355c0.656-0.484,1.551-0.895,2.684-1.23s2.348-0.504,3.645-0.504c1.953,0,3.668,0.281,5.145,0.844
			s2.566,1.324,3.27,2.285s1.188,2.246,1.453,3.855l-4.125,0.563c-0.188-1.281-0.73-2.281-1.629-3s-2.168-1.078-3.809-1.078
			c-1.938,0-3.32,0.32-4.148,0.961s-1.242,1.391-1.242,2.25c0,0.547,0.172,1.039,0.516,1.477c0.344,0.453,0.883,0.828,1.617,1.125
			c0.422,0.156,1.664,0.516,3.727,1.078c2.984,0.797,5.066,1.449,6.246,1.957s2.105,1.246,2.777,2.215s1.008,2.172,1.008,3.609
			c0,1.406-0.41,2.73-1.23,3.973s-2.004,2.203-3.551,2.883s-3.297,1.02-5.25,1.02c-3.234,0-5.699-0.672-7.395-2.016
			S207.461,605.211,206.992,602.57z"/>
		<path fill="#333333" d="M232.703,580.492v-4.852h4.219v4.852H232.703z M232.703,610v-24.891h4.219V610H232.703z"/>
		<path fill="#333333" d="M242.57,612.063l4.102,0.609c0.172,1.266,0.648,2.188,1.43,2.766c1.047,0.781,2.477,1.172,4.289,1.172
			c1.953,0,3.461-0.391,4.523-1.172s1.781-1.875,2.156-3.281c0.219-0.859,0.32-2.664,0.305-5.414
			c-1.844,2.172-4.141,3.258-6.891,3.258c-3.422,0-6.07-1.234-7.945-3.703s-2.813-5.43-2.813-8.883c0-2.375,0.43-4.566,1.289-6.574
			s2.105-3.559,3.738-4.652s3.551-1.641,5.754-1.641c2.938,0,5.359,1.188,7.266,3.563v-3h3.891v21.516
			c0,3.875-0.395,6.621-1.184,8.238s-2.039,2.895-3.75,3.832s-3.816,1.406-6.316,1.406c-2.969,0-5.367-0.668-7.195-2.004
			S242.508,614.75,242.57,612.063z M246.063,597.109c0,3.266,0.648,5.648,1.945,7.148s2.922,2.25,4.875,2.25
			c1.938,0,3.563-0.746,4.875-2.238s1.969-3.832,1.969-7.02c0-3.047-0.676-5.344-2.027-6.891s-2.98-2.32-4.887-2.32
			c-1.875,0-3.469,0.762-4.781,2.285S246.063,594.109,246.063,597.109z"/>
		<path fill="#333333" d="M270.039,610v-24.891h3.797v3.539c1.828-2.734,4.469-4.102,7.922-4.102c1.5,0,2.879,0.27,4.137,0.809
			s2.199,1.246,2.824,2.121s1.063,1.914,1.313,3.117c0.156,0.781,0.234,2.148,0.234,4.102V610h-4.219v-15.141
			c0-1.719-0.164-3.004-0.492-3.855s-0.91-1.531-1.746-2.039s-1.816-0.762-2.941-0.762c-1.797,0-3.348,0.57-4.652,1.711
			s-1.957,3.305-1.957,6.492V610H270.039z"/>
		<path fill="#2ECC71" d="M316.609,610l-9.117-34.359h4.664l5.227,22.523c0.563,2.359,1.047,4.703,1.453,7.031
			c0.875-3.672,1.391-5.789,1.547-6.352l6.539-23.203h5.484l4.922,17.391c1.234,4.313,2.125,8.367,2.672,12.164
			c0.438-2.172,1.008-4.664,1.711-7.477l5.391-22.078h4.57L342.25,610h-4.383l-7.242-26.18c-0.609-2.188-0.969-3.531-1.078-4.031
			c-0.359,1.578-0.695,2.922-1.008,4.031L321.25,610H316.609z"/>
		<path fill="#2ECC71" d="M371.547,601.984l4.359,0.539c-0.688,2.547-1.961,4.523-3.82,5.93s-4.234,2.109-7.125,2.109
			c-3.641,0-6.527-1.121-8.66-3.363s-3.199-5.387-3.199-9.434c0-4.188,1.078-7.438,3.234-9.75s4.953-3.469,8.391-3.469
			c3.328,0,6.047,1.133,8.156,3.398s3.164,5.453,3.164,9.563c0,0.25-0.008,0.625-0.023,1.125h-18.563
			c0.156,2.734,0.93,4.828,2.32,6.281s3.125,2.18,5.203,2.18c1.547,0,2.867-0.406,3.961-1.219S370.906,603.766,371.547,601.984z
			 M357.695,595.164h13.898c-0.188-2.094-0.719-3.664-1.594-4.711c-1.344-1.625-3.086-2.438-5.227-2.438
			c-1.938,0-3.566,0.648-4.887,1.945S357.836,592.992,357.695,595.164z"/>
		<path fill="#2ECC71" d="M385.094,610h-3.914v-34.359h4.219v12.258c1.781-2.234,4.055-3.352,6.82-3.352
			c1.531,0,2.98,0.309,4.348,0.926s2.492,1.484,3.375,2.602s1.574,2.465,2.074,4.043s0.75,3.266,0.75,5.063
			c0,4.266-1.055,7.563-3.164,9.891s-4.641,3.492-7.594,3.492c-2.938,0-5.242-1.227-6.914-3.68V610z M385.047,597.367
			c0,2.984,0.406,5.141,1.219,6.469c1.328,2.172,3.125,3.258,5.391,3.258c1.844,0,3.438-0.801,4.781-2.402s2.016-3.988,2.016-7.16
			c0-3.25-0.645-5.648-1.934-7.195s-2.848-2.32-4.676-2.32c-1.844,0-3.438,0.801-4.781,2.402S385.047,594.336,385.047,597.367z"/>
		<path fill="#333333" d="M424.047,610v-3.141c-1.578,2.469-3.898,3.703-6.961,3.703c-1.984,0-3.809-0.547-5.473-1.641
			s-2.953-2.621-3.867-4.582s-1.371-4.215-1.371-6.762c0-2.484,0.414-4.738,1.242-6.762s2.07-3.574,3.727-4.652
			s3.508-1.617,5.555-1.617c1.5,0,2.836,0.316,4.008,0.949s2.125,1.457,2.859,2.473v-12.328h4.195V610H424.047z M410.711,597.578
			c0,3.188,0.672,5.57,2.016,7.148s2.93,2.367,4.758,2.367c1.844,0,3.41-0.754,4.699-2.262s1.934-3.809,1.934-6.902
			c0-3.406-0.656-5.906-1.969-7.5s-2.93-2.391-4.852-2.391c-1.875,0-3.441,0.766-4.699,2.297S410.711,594.281,410.711,597.578z"/>
		<path fill="#333333" d="M451.633,601.984l4.359,0.539c-0.688,2.547-1.961,4.523-3.82,5.93s-4.234,2.109-7.125,2.109
			c-3.641,0-6.527-1.121-8.66-3.363s-3.199-5.387-3.199-9.434c0-4.188,1.078-7.438,3.234-9.75s4.953-3.469,8.391-3.469
			c3.328,0,6.047,1.133,8.156,3.398s3.164,5.453,3.164,9.563c0,0.25-0.008,0.625-0.023,1.125h-18.563
			c0.156,2.734,0.93,4.828,2.32,6.281s3.125,2.18,5.203,2.18c1.547,0,2.867-0.406,3.961-1.219S450.992,603.766,451.633,601.984z
			 M437.781,595.164h13.898c-0.188-2.094-0.719-3.664-1.594-4.711c-1.344-1.625-3.086-2.438-5.227-2.438
			c-1.938,0-3.566,0.648-4.887,1.945S437.922,592.992,437.781,595.164z"/>
		<path fill="#333333" d="M459.602,602.57l4.172-0.656c0.234,1.672,0.887,2.953,1.957,3.844s2.566,1.336,4.488,1.336
			c1.938,0,3.375-0.395,4.313-1.184s1.406-1.715,1.406-2.777c0-0.953-0.414-1.703-1.242-2.25c-0.578-0.375-2.016-0.852-4.313-1.43
			c-3.094-0.781-5.238-1.457-6.434-2.027s-2.102-1.359-2.719-2.367s-0.926-2.121-0.926-3.34c0-1.109,0.254-2.137,0.762-3.082
			s1.199-1.73,2.074-2.355c0.656-0.484,1.551-0.895,2.684-1.23s2.348-0.504,3.645-0.504c1.953,0,3.668,0.281,5.145,0.844
			s2.566,1.324,3.27,2.285s1.188,2.246,1.453,3.855l-4.125,0.563c-0.188-1.281-0.73-2.281-1.629-3s-2.168-1.078-3.809-1.078
			c-1.938,0-3.32,0.32-4.148,0.961s-1.242,1.391-1.242,2.25c0,0.547,0.172,1.039,0.516,1.477c0.344,0.453,0.883,0.828,1.617,1.125
			c0.422,0.156,1.664,0.516,3.727,1.078c2.984,0.797,5.066,1.449,6.246,1.957s2.105,1.246,2.777,2.215s1.008,2.172,1.008,3.609
			c0,1.406-0.41,2.73-1.23,3.973s-2.004,2.203-3.551,2.883s-3.297,1.02-5.25,1.02c-3.234,0-5.699-0.672-7.395-2.016
			S460.07,605.211,459.602,602.57z"/>
		<path fill="#333333" d="M485.313,580.492v-4.852h4.219v4.852H485.313z M485.313,610v-24.891h4.219V610H485.313z"/>
		<path fill="#333333" d="M495.18,612.063l4.102,0.609c0.172,1.266,0.648,2.188,1.43,2.766c1.047,0.781,2.477,1.172,4.289,1.172
			c1.953,0,3.461-0.391,4.523-1.172s1.781-1.875,2.156-3.281c0.219-0.859,0.32-2.664,0.305-5.414
			c-1.844,2.172-4.141,3.258-6.891,3.258c-3.422,0-6.07-1.234-7.945-3.703s-2.813-5.43-2.813-8.883c0-2.375,0.43-4.566,1.289-6.574
			s2.105-3.559,3.738-4.652s3.551-1.641,5.754-1.641c2.938,0,5.359,1.188,7.266,3.563v-3h3.891v21.516
			c0,3.875-0.395,6.621-1.184,8.238s-2.039,2.895-3.75,3.832s-3.816,1.406-6.316,1.406c-2.969,0-5.367-0.668-7.195-2.004
			S495.117,614.75,495.18,612.063z M498.672,597.109c0,3.266,0.648,5.648,1.945,7.148s2.922,2.25,4.875,2.25
			c1.938,0,3.563-0.746,4.875-2.238s1.969-3.832,1.969-7.02c0-3.047-0.676-5.344-2.027-6.891s-2.98-2.32-4.887-2.32
			c-1.875,0-3.469,0.762-4.781,2.285S498.672,594.109,498.672,597.109z"/>
		<path fill="#333333" d="M522.648,610v-24.891h3.797v3.539c1.828-2.734,4.469-4.102,7.922-4.102c1.5,0,2.879,0.27,4.137,0.809
			s2.199,1.246,2.824,2.121s1.063,1.914,1.313,3.117c0.156,0.781,0.234,2.148,0.234,4.102V610h-4.219v-15.141
			c0-1.719-0.164-3.004-0.492-3.855s-0.91-1.531-1.746-2.039s-1.816-0.762-2.941-0.762c-1.797,0-3.348,0.57-4.652,1.711
			s-1.957,3.305-1.957,6.492V610H522.648z"/>
		<path fill="#333333" d="M566.383,601.984l4.359,0.539c-0.688,2.547-1.961,4.523-3.82,5.93s-4.234,2.109-7.125,2.109
			c-3.641,0-6.527-1.121-8.66-3.363s-3.199-5.387-3.199-9.434c0-4.188,1.078-7.438,3.234-9.75s4.953-3.469,8.391-3.469
			c3.328,0,6.047,1.133,8.156,3.398s3.164,5.453,3.164,9.563c0,0.25-0.008,0.625-0.023,1.125h-18.563
			c0.156,2.734,0.93,4.828,2.32,6.281s3.125,2.18,5.203,2.18c1.547,0,2.867-0.406,3.961-1.219S565.742,603.766,566.383,601.984z
			 M552.531,595.164h13.898c-0.188-2.094-0.719-3.664-1.594-4.711c-1.344-1.625-3.086-2.438-5.227-2.438
			c-1.938,0-3.566,0.648-4.887,1.945S552.672,592.992,552.531,595.164z"/>
		<path fill="#333333" d="M575.992,610v-24.891h3.797v3.773c0.969-1.766,1.863-2.93,2.684-3.492s1.723-0.844,2.707-0.844
			c1.422,0,2.867,0.453,4.336,1.359l-1.453,3.914c-1.031-0.609-2.063-0.914-3.094-0.914c-0.922,0-1.75,0.277-2.484,0.832
			s-1.258,1.324-1.57,2.309c-0.469,1.5-0.703,3.141-0.703,4.922V610H575.992z"/>
	</g>
</g>
<g id="Layer_2">
	<g>
		<defs>
			<polygon id="SVGID_1_" points="124,456 576,191 124,191 			"/>
		</defs>
		<clipPath id="SVGID_2_">
			<use xlink:href="#SVGID_1_"  overflow="visible"/>
		</clipPath>
		<path opacity="0.2" clip-path="url(#SVGID_2_)" fill="#F2F2F2" d="M576,446c0,5.5-4.5,10-10,10H134c-5.5,0-10-4.5-10-10V201
			c0-5.5,4.5-10,10-10h432c5.5,0,10,4.5,10,10V446z"/>
	</g>
</g>
</svg>
