<?xml version="1.0" encoding="utf-8"?>
<!-- Generator: Adobe Illustrator 16.0.0, SVG Export Plug-In . SVG Version: 6.00 Build 0)  -->
<!DOCTYPE svg PUBLIC "-//W3C//DTD SVG 1.1//EN" "http://www.w3.org/Graphics/SVG/1.1/DTD/svg11.dtd">
<svg version="1.1" id="Layer_1" xmlns="http://www.w3.org/2000/svg" xmlns:xlink="http://www.w3.org/1999/xlink" x="0px" y="0px"
	 width="150px" height="150px" viewBox="0 0 150 150" enable-background="new 0 0 150 150" xml:space="preserve">
<path fill="#2B2B2B" d="M142,99.998c0,1.658-1.344,3.002-3.001,3.002H10.001C8.344,103,7,101.656,7,99.998V26.002
	C7,24.344,8.344,23,10.001,23h128.998c1.657,0,3.001,1.344,3.001,3.002V99.998z"/>
<rect x="11" y="27" fill="#E0E0E0" width="127" height="72"/>
<rect x="11" y="27" fill="#2ECC71" width="36" height="72"/>
<rect x="63" y="37" fill="#3498DB" width="61" height="7"/>
<rect x="63" y="44" fill="#FFFFFF" width="61" height="45"/>
<polygon fill="#212121" points="104.817,127 44.807,127 46.607,117 102.316,117 "/>
<rect x="66" y="101" fill="#2B2B2B" width="18" height="20"/>
<g>
	<defs>
		<polygon id="SVGID_1_" points="7,102.396 142.624,23 7,23 		"/>
	</defs>
	<clipPath id="SVGID_2_">
		<use xlink:href="#SVGID_1_"  overflow="visible"/>
	</clipPath>
	<path opacity="0.2" clip-path="url(#SVGID_2_)" fill="#F2F2F2" d="M142,99.998c0,1.658-1.344,3.002-3.001,3.002H10.001
		C8.344,103,7,101.656,7,99.998V26.002C7,24.344,8.344,23,10.001,23h128.998c1.657,0,3.001,1.344,3.001,3.002V99.998z"/>
</g>
<g>
	<path fill="#FFFFFF" d="M10.394,141.91l3.571-9.3h1.325l3.806,9.3h-1.402l-1.085-2.816h-3.888L11.7,141.91H10.394z M13.077,138.092
		h3.152l-0.97-2.576c-0.296-0.782-0.516-1.425-0.66-1.928c-0.119,0.597-0.286,1.188-0.501,1.775L13.077,138.092z"/>
	<path fill="#FFFFFF" d="M20.079,141.91v-9.3h3.204c0.723,0,1.274,0.045,1.655,0.134c0.533,0.123,0.988,0.345,1.364,0.666
		c0.49,0.414,0.857,0.943,1.101,1.589c0.243,0.645,0.364,1.382,0.364,2.21c0,0.707-0.082,1.332-0.247,1.878
		c-0.165,0.545-0.376,0.997-0.634,1.354c-0.258,0.358-0.54,0.64-0.847,0.845s-0.676,0.36-1.11,0.466
		c-0.434,0.105-0.932,0.159-1.494,0.159H20.079z M21.31,140.813h1.985c0.613,0,1.094-0.057,1.443-0.171
		c0.349-0.114,0.627-0.275,0.834-0.482c0.292-0.292,0.519-0.685,0.682-1.177c0.163-0.492,0.244-1.09,0.244-1.792
		c0-0.973-0.16-1.72-0.479-2.242c-0.319-0.522-0.708-0.872-1.164-1.05c-0.33-0.127-0.861-0.189-1.592-0.189H21.31V140.813z"/>
	<path fill="#FFFFFF" d="M33.926,139.74l1.18,0.146c-0.186,0.688-0.531,1.224-1.034,1.604c-0.503,0.38-1.146,0.57-1.928,0.57
		c-0.985,0-1.767-0.303-2.344-0.909c-0.577-0.607-0.866-1.459-0.866-2.554c0-1.134,0.292-2.014,0.875-2.639
		c0.583-0.626,1.34-0.938,2.271-0.938c0.901,0,1.637,0.307,2.208,0.919c0.571,0.614,0.856,1.477,0.856,2.589
		c0,0.067-0.001,0.169-0.006,0.304h-5.024c0.042,0.74,0.251,1.307,0.628,1.7s0.846,0.59,1.408,0.59c0.418,0,0.776-0.109,1.072-0.33
		C33.518,140.573,33.753,140.223,33.926,139.74z M30.177,137.895h3.762c-0.051-0.566-0.195-0.991-0.432-1.274
		c-0.364-0.44-0.835-0.66-1.415-0.66c-0.524,0-0.965,0.176-1.323,0.527C30.413,136.837,30.215,137.307,30.177,137.895z"/>
	<path fill="#FFFFFF" d="M36.083,139.899l1.129-0.178c0.063,0.452,0.24,0.8,0.53,1.04c0.29,0.241,0.694,0.361,1.215,0.361
		c0.524,0,0.913-0.106,1.167-0.32c0.254-0.213,0.38-0.464,0.38-0.751c0-0.259-0.112-0.461-0.336-0.609
		c-0.157-0.102-0.546-0.23-1.167-0.388c-0.837-0.211-1.418-0.394-1.741-0.548c-0.324-0.154-0.569-0.368-0.736-0.641
		c-0.167-0.272-0.25-0.573-0.25-0.904c0-0.3,0.069-0.578,0.206-0.833c0.137-0.256,0.324-0.47,0.562-0.638
		c0.177-0.131,0.419-0.242,0.726-0.334c0.307-0.09,0.635-0.136,0.986-0.136c0.528,0,0.993,0.076,1.392,0.228
		c0.4,0.152,0.695,0.359,0.885,0.619c0.191,0.261,0.322,0.607,0.394,1.043l-1.117,0.152c-0.051-0.347-0.197-0.617-0.44-0.812
		s-0.587-0.292-1.031-0.292c-0.524,0-0.898,0.087-1.123,0.26c-0.224,0.174-0.335,0.377-0.335,0.609c0,0.148,0.046,0.281,0.139,0.4
		c0.093,0.122,0.239,0.223,0.438,0.304c0.114,0.042,0.45,0.14,1.009,0.291c0.808,0.217,1.371,0.393,1.69,0.53
		c0.32,0.138,0.57,0.337,0.752,0.6c0.182,0.262,0.273,0.587,0.273,0.977c0,0.38-0.111,0.738-0.333,1.075
		c-0.223,0.337-0.542,0.596-0.961,0.78c-0.419,0.185-0.893,0.275-1.421,0.275c-0.875,0-1.542-0.182-2.001-0.545
		C36.502,141.152,36.209,140.613,36.083,139.899z"/>
	<path fill="#FFFFFF" d="M43.041,133.924v-1.313h1.142v1.313H43.041z M43.041,141.91v-6.736h1.142v6.736H43.041z"/>
	<path fill="#FFFFFF" d="M45.711,142.468l1.11,0.165c0.046,0.342,0.175,0.592,0.387,0.749c0.283,0.211,0.67,0.317,1.161,0.317
		c0.528,0,0.937-0.106,1.224-0.317c0.288-0.212,0.482-0.509,0.584-0.889c0.059-0.232,0.087-0.721,0.082-1.465
		c-0.499,0.587-1.121,0.882-1.865,0.882c-0.926,0-1.643-0.335-2.15-1.003s-0.761-1.47-0.761-2.403c0-0.644,0.116-1.236,0.349-1.779
		c0.233-0.543,0.57-0.963,1.012-1.26c0.442-0.296,0.961-0.443,1.558-0.443c0.794,0,1.45,0.321,1.966,0.964v-0.812h1.053v5.822
		c0,1.049-0.107,1.792-0.32,2.229s-0.552,0.784-1.015,1.037c-0.463,0.254-1.033,0.381-1.709,0.381c-0.803,0-1.452-0.181-1.947-0.542
		C45.933,143.739,45.694,143.195,45.711,142.468z M46.656,138.421c0,0.884,0.175,1.529,0.526,1.935
		c0.351,0.406,0.791,0.609,1.32,0.609c0.524,0,0.964-0.202,1.319-0.605c0.355-0.404,0.533-1.038,0.533-1.9
		c0-0.824-0.183-1.446-0.549-1.864c-0.366-0.419-0.807-0.629-1.323-0.629c-0.507,0-0.938,0.207-1.294,0.619
		C46.834,136.997,46.656,137.609,46.656,138.421z"/>
	<path fill="#FFFFFF" d="M53.145,141.91v-6.736h1.028v0.958c0.495-0.741,1.209-1.11,2.144-1.11c0.406,0,0.779,0.072,1.12,0.219
		c0.34,0.146,0.595,0.337,0.764,0.574c0.169,0.237,0.288,0.518,0.355,0.844c0.042,0.211,0.064,0.581,0.064,1.109v4.143h-1.143
		v-4.098c0-0.466-0.044-0.813-0.133-1.044s-0.247-0.414-0.473-0.552s-0.492-0.206-0.796-0.206c-0.486,0-0.906,0.154-1.259,0.464
		c-0.353,0.309-0.53,0.894-0.53,1.757v3.679H53.145z"/>
	<path fill="#FFFFFF" d="M65.749,141.91l-2.467-9.3h1.262l1.415,6.096c0.152,0.64,0.283,1.273,0.393,1.903
		c0.237-0.994,0.376-1.566,0.419-1.719l1.77-6.28h1.484l1.333,4.707c0.334,1.167,0.575,2.265,0.723,3.292
		c0.118-0.588,0.272-1.263,0.463-2.023L74,132.61h1.238l-2.551,9.3h-1.186l-1.959-7.086c-0.165-0.592-0.262-0.955-0.292-1.091
		c-0.097,0.427-0.188,0.791-0.273,1.091l-1.972,7.086H65.749z"/>
	<path fill="#FFFFFF" d="M80.616,139.74l1.181,0.146c-0.187,0.688-0.531,1.224-1.033,1.604c-0.504,0.38-1.147,0.57-1.93,0.57
		c-0.984,0-1.766-0.303-2.344-0.909c-0.578-0.607-0.866-1.459-0.866-2.554c0-1.134,0.292-2.014,0.875-2.639
		c0.584-0.626,1.34-0.938,2.271-0.938c0.901,0,1.637,0.307,2.208,0.919c0.57,0.614,0.855,1.477,0.855,2.589
		c0,0.067-0.002,0.169-0.006,0.304h-5.024c0.042,0.74,0.252,1.307,0.629,1.7c0.376,0.394,0.846,0.59,1.407,0.59
		c0.42,0,0.776-0.109,1.072-0.33C80.209,140.573,80.443,140.223,80.616,139.74z M76.867,137.895h3.762
		c-0.051-0.566-0.194-0.991-0.432-1.274c-0.363-0.44-0.834-0.66-1.414-0.66c-0.523,0-0.965,0.176-1.322,0.527
		C77.104,136.837,76.906,137.307,76.867,137.895z"/>
	<path fill="#FFFFFF" d="M84.283,141.91h-1.06v-9.3h1.142v3.318c0.482-0.605,1.098-0.907,1.846-0.907
		c0.414,0,0.807,0.084,1.177,0.25c0.37,0.167,0.675,0.402,0.913,0.704c0.239,0.303,0.426,0.667,0.562,1.095
		c0.135,0.427,0.203,0.884,0.203,1.37c0,1.154-0.286,2.047-0.856,2.676c-0.571,0.63-1.256,0.945-2.056,0.945
		c-0.794,0-1.417-0.332-1.87-0.996V141.91z M84.27,138.491c0,0.808,0.111,1.391,0.33,1.75c0.359,0.589,0.846,0.882,1.459,0.882
		c0.498,0,0.931-0.216,1.295-0.649c0.362-0.434,0.545-1.08,0.545-1.938c0-0.88-0.175-1.528-0.523-1.947s-0.771-0.628-1.266-0.628
		c-0.499,0-0.93,0.217-1.293,0.65C84.451,137.044,84.27,137.671,84.27,138.491z"/>
	<path fill="#FFFFFF" d="M94.825,141.91v-0.851c-0.427,0.668-1.056,1.002-1.884,1.002c-0.537,0-1.032-0.147-1.481-0.443
		c-0.45-0.296-0.8-0.71-1.047-1.24c-0.248-0.531-0.371-1.141-0.371-1.83c0-0.672,0.112-1.282,0.337-1.83
		c0.224-0.547,0.56-0.967,1.008-1.259c0.449-0.292,0.949-0.438,1.503-0.438c0.406,0,0.769,0.085,1.085,0.257
		c0.317,0.171,0.575,0.395,0.773,0.669v-3.337h1.136v9.3H94.825z M91.215,138.548c0,0.862,0.183,1.507,0.547,1.935
		c0.362,0.428,0.792,0.641,1.287,0.641c0.499,0,0.923-0.204,1.271-0.612c0.349-0.407,0.523-1.03,0.523-1.868
		c0-0.921-0.178-1.598-0.533-2.029c-0.354-0.431-0.793-0.647-1.313-0.647c-0.508,0-0.931,0.208-1.271,0.622
		S91.215,137.655,91.215,138.548z"/>
	<path fill="#FFFFFF" d="M102.291,139.74l1.18,0.146c-0.186,0.688-0.531,1.224-1.034,1.604c-0.504,0.38-1.146,0.57-1.929,0.57
		c-0.985,0-1.767-0.303-2.344-0.909c-0.577-0.607-0.865-1.459-0.865-2.554c0-1.134,0.292-2.014,0.875-2.639
		c0.583-0.626,1.341-0.938,2.271-0.938c0.901,0,1.636,0.307,2.208,0.919c0.57,0.614,0.856,1.477,0.856,2.589
		c0,0.067-0.003,0.169-0.007,0.304h-5.023c0.042,0.74,0.251,1.307,0.628,1.7s0.846,0.59,1.408,0.59c0.418,0,0.776-0.109,1.071-0.33
		C101.883,140.573,102.117,140.223,102.291,139.74z M98.542,137.895h3.761c-0.051-0.566-0.194-0.991-0.431-1.274
		c-0.363-0.44-0.835-0.66-1.415-0.66c-0.524,0-0.965,0.176-1.322,0.527C98.778,136.837,98.58,137.307,98.542,137.895z"/>
	<path fill="#FFFFFF" d="M104.446,139.899l1.13-0.178c0.063,0.452,0.239,0.8,0.53,1.04c0.289,0.241,0.694,0.361,1.215,0.361
		c0.523,0,0.913-0.106,1.166-0.32c0.254-0.213,0.381-0.464,0.381-0.751c0-0.259-0.111-0.461-0.336-0.609
		c-0.156-0.102-0.546-0.23-1.167-0.388c-0.838-0.211-1.418-0.394-1.741-0.548c-0.324-0.154-0.569-0.368-0.736-0.641
		s-0.25-0.573-0.25-0.904c0-0.3,0.068-0.578,0.205-0.833c0.138-0.256,0.325-0.47,0.562-0.638c0.179-0.131,0.421-0.242,0.727-0.334
		c0.307-0.09,0.636-0.136,0.986-0.136c0.529,0,0.993,0.076,1.393,0.228c0.399,0.152,0.694,0.359,0.886,0.619
		c0.189,0.261,0.32,0.607,0.393,1.043l-1.117,0.152c-0.051-0.347-0.197-0.617-0.44-0.812s-0.587-0.292-1.03-0.292
		c-0.525,0-0.898,0.087-1.123,0.26c-0.224,0.174-0.336,0.377-0.336,0.609c0,0.148,0.046,0.281,0.14,0.4
		c0.092,0.122,0.239,0.223,0.438,0.304c0.114,0.042,0.45,0.14,1.009,0.291c0.808,0.217,1.37,0.393,1.689,0.53s0.57,0.337,0.752,0.6
		c0.182,0.262,0.272,0.587,0.272,0.977c0,0.38-0.11,0.738-0.333,1.075c-0.222,0.337-0.542,0.596-0.96,0.78
		c-0.42,0.185-0.893,0.275-1.421,0.275c-0.876,0-1.543-0.182-2.002-0.545C104.867,141.152,104.573,140.613,104.446,139.899z"/>
	<path fill="#FFFFFF" d="M111.405,133.924v-1.313h1.142v1.313H111.405z M111.405,141.91v-6.736h1.142v6.736H111.405z"/>
	<path fill="#FFFFFF" d="M114.076,142.468l1.109,0.165c0.046,0.342,0.177,0.592,0.388,0.749c0.283,0.211,0.669,0.317,1.16,0.317
		c0.528,0,0.937-0.106,1.225-0.317c0.287-0.212,0.481-0.509,0.583-0.889c0.06-0.232,0.087-0.721,0.083-1.465
		c-0.5,0.587-1.121,0.882-1.866,0.882c-0.926,0-1.642-0.335-2.149-1.003c-0.507-0.668-0.761-1.47-0.761-2.403
		c0-0.644,0.116-1.236,0.349-1.779s0.569-0.963,1.012-1.26c0.441-0.296,0.961-0.443,1.557-0.443c0.795,0,1.45,0.321,1.966,0.964
		v-0.812h1.054v5.822c0,1.049-0.106,1.792-0.32,2.229c-0.213,0.438-0.552,0.784-1.015,1.037c-0.463,0.254-1.033,0.381-1.709,0.381
		c-0.805,0-1.453-0.181-1.948-0.542C114.298,143.739,114.059,143.195,114.076,142.468z M115.02,138.421
		c0,0.884,0.177,1.529,0.527,1.935c0.351,0.406,0.791,0.609,1.319,0.609c0.524,0,0.965-0.202,1.32-0.605
		c0.354-0.404,0.532-1.038,0.532-1.9c0-0.824-0.183-1.446-0.549-1.864c-0.366-0.419-0.807-0.629-1.322-0.629
		c-0.507,0-0.938,0.207-1.295,0.619C115.198,136.997,115.02,137.609,115.02,138.421z"/>
	<path fill="#FFFFFF" d="M121.51,141.91v-6.736h1.027v0.958c0.495-0.741,1.209-1.11,2.144-1.11c0.406,0,0.779,0.072,1.12,0.219
		c0.34,0.146,0.596,0.337,0.764,0.574c0.17,0.237,0.288,0.518,0.355,0.844c0.042,0.211,0.063,0.581,0.063,1.109v4.143h-1.142v-4.098
		c0-0.466-0.044-0.813-0.134-1.044c-0.088-0.23-0.246-0.414-0.472-0.552c-0.227-0.138-0.492-0.206-0.796-0.206
		c-0.487,0-0.906,0.154-1.26,0.464c-0.353,0.309-0.529,0.894-0.529,1.757v3.679H121.51z"/>
	<path fill="#FFFFFF" d="M133.346,139.74l1.18,0.146c-0.187,0.688-0.53,1.224-1.033,1.604c-0.504,0.38-1.146,0.57-1.93,0.57
		c-0.984,0-1.766-0.303-2.343-0.909c-0.578-0.607-0.866-1.459-0.866-2.554c0-1.134,0.293-2.014,0.876-2.639
		c0.583-0.626,1.34-0.938,2.27-0.938c0.901,0,1.638,0.307,2.208,0.919c0.571,0.614,0.856,1.477,0.856,2.589
		c0,0.067-0.002,0.169-0.007,0.304h-5.023c0.042,0.74,0.252,1.307,0.628,1.7s0.847,0.59,1.408,0.59c0.419,0,0.776-0.109,1.072-0.33
		C132.938,140.573,133.173,140.223,133.346,139.74z M129.597,137.895h3.762c-0.051-0.566-0.195-0.991-0.432-1.274
		c-0.364-0.44-0.835-0.66-1.414-0.66c-0.524,0-0.965,0.176-1.322,0.527C129.832,136.837,129.636,137.307,129.597,137.895z"/>
	<path fill="#FFFFFF" d="M135.946,141.91v-6.736h1.028v1.021c0.262-0.479,0.504-0.794,0.726-0.946
		c0.222-0.151,0.466-0.228,0.732-0.228c0.385,0,0.776,0.122,1.174,0.368l-0.393,1.059c-0.28-0.165-0.56-0.247-0.839-0.247
		c-0.249,0-0.474,0.075-0.672,0.226c-0.199,0.149-0.34,0.357-0.425,0.625c-0.127,0.405-0.19,0.849-0.19,1.331v3.527H135.946z"/>
</g>
</svg>
